<?xml version="1.0" encoding="UTF-8"?>
<svg width="100px" height="100px" viewBox="0 0 100 100" version="1.1" xmlns="http://www.w3.org/2000/svg" xmlns:xlink="http://www.w3.org/1999/xlink">
    <title>Artboard Copy 189</title>
    <g id="Artboard-Copy-189" stroke="none" stroke-width="1" fill="none" fill-rule="evenodd">
        <path d="M50,99 C56.7092057,99 63.0194417,97.7216683 68.9307079,95.165005 C74.8419741,92.6083416 80.0448654,89.0746095 84.5393819,84.5638086 C89.0338983,80.0530076 92.5676304,74.8419741 95.1405783,68.9307079 C97.7135261,63.0194417 99,56.7092057 99,50 C99,43.2907943 97.7135261,36.9805583 95.1405783,31.0692921 C92.5676304,25.1580259 89.0338983,19.9469924 84.5393819,15.4361914 C80.0448654,10.9253905 74.8338318,7.39165836 68.9062812,4.83499501 C62.9787305,2.27833167 56.6603523,1 49.9511466,1 C43.2419408,1 36.9317049,2.27833167 31.0204387,4.83499501 C25.1091725,7.39165836 19.9062812,10.9253905 15.4117647,15.4361914 C10.9172483,19.9469924 7.39165836,25.1580259 4.83499501,31.0692921 C2.27833167,36.9805583 1,43.2907943 1,50 C1,56.7092057 2.27833167,63.0194417 4.83499501,68.9307079 C7.39165836,74.8419741 10.9253905,80.0530076 15.4361914,84.5638086 C19.9469924,89.0746095 25.1580259,92.6083416 31.0692921,95.165005 C36.9805583,97.7216683 43.2907943,99 50,99 Z M49.9755478,92.7179487 C44.0418202,92.7179487 38.4993273,91.6100843 33.3480692,89.3943555 C28.1968111,87.1786266 23.6650081,84.1157073 19.7526602,80.2055976 C15.8403123,76.2954879 12.7837905,71.7581314 10.5830948,66.5935281 C8.38239913,61.4289249 7.28205128,55.8977488 7.28205128,50 C7.28205128,44.1022512 8.38239913,38.5710751 10.5830948,33.4064719 C12.7837905,28.2418686 15.8321616,23.6963661 19.7282081,19.7699642 C23.6242545,15.8435624 28.1560575,12.7806431 33.323617,10.5812064 C38.4911766,8.38176964 44.0255187,7.28205128 49.9266435,7.28205128 C55.8603711,7.28205128 61.402864,8.38176964 66.5541221,10.5812064 C71.7053802,12.7806431 76.2453339,15.8435624 80.1739832,19.7699642 C84.1026326,23.6963661 87.1754558,28.2418686 89.392453,33.4064719 C91.6094501,38.5710751 92.7179487,44.1022512 92.7179487,50 C92.7179487,55.8977488 91.6176009,61.4289249 89.4169052,66.5935281 C87.2162095,71.7581314 84.1596877,76.2954879 80.2473398,80.2055976 C76.3349919,84.1157073 71.7868874,87.1786266 66.6030264,89.3943555 C61.4191655,91.6100843 55.8766726,92.7179487 49.9755478,92.7179487 Z M50,32.4102564 C51.4139418,32.4102564 52.6050341,31.8595012 53.5732769,30.7579909 C54.5415196,29.6564805 55.025641,28.3312259 55.025641,26.7822269 C55.025641,25.1988058 54.5415196,23.85634 53.5732769,22.7548296 C52.6050341,21.6533193 51.4139418,21.1025641 50,21.1025641 C48.616796,21.1025641 47.4333882,21.6533193 46.4497765,22.7548296 C45.4661648,23.85634 44.974359,25.1988058 44.974359,26.7822269 C44.974359,28.3312259 45.4661648,29.6564805 46.4497765,30.7579909 C47.4333882,31.8595012 48.616796,32.4102564 50,32.4102564 Z M61.0818748,76.3846154 C61.8826461,76.3846154 62.5392787,76.1220143 63.0517723,75.5968122 C63.564266,75.0716101 63.8205128,74.43152 63.8205128,73.6765419 C63.8205128,72.9215639 63.564266,72.2814738 63.0517723,71.7562717 C62.5392787,71.2310695 61.8826461,70.9684685 61.0818748,70.9684685 L54.2112566,70.9684685 L54.2112566,43.2968815 C54.2112566,42.3121275 53.9550097,41.5079118 53.4425161,40.8842342 C52.9300224,40.2605567 52.2093282,39.9487179 51.2804334,39.9487179 L42.0555474,39.9487179 C41.254776,39.9487179 40.5981435,40.211319 40.0856499,40.7365211 C39.5731562,41.2617233 39.3169093,41.9018134 39.3169093,42.6567914 C39.3169093,43.4445946 39.5731562,44.092891 40.0856499,44.6016805 C40.5981435,45.1104701 41.254776,45.3648649 42.0555474,45.3648649 L48.3496102,45.3648649 L48.3496102,70.9684685 L41.4309457,70.9684685 C40.6622052,70.9684685 40.0135804,71.2310695 39.4850713,71.7562717 C38.9565622,72.2814738 38.6923077,72.9215639 38.6923077,73.6765419 C38.6923077,74.43152 38.9565622,75.0716101 39.4850713,75.5968122 C40.0135804,76.1220143 40.6622052,76.3846154 41.4309457,76.3846154 L61.0818748,76.3846154 Z" id="􀅴" fill="#311D1D" fill-rule="nonzero"></path>
    </g>
</svg>