<?xml version="1.0" encoding="UTF-8"?>
<svg width="100px" height="100px" viewBox="0 0 100 100" version="1.1" xmlns="http://www.w3.org/2000/svg" xmlns:xlink="http://www.w3.org/1999/xlink">
    <title>Artboard Copy 173</title>
    <g id="Artboard-Copy-173" stroke="none" stroke-width="1" fill="none" fill-rule="evenodd">
        <path d="M50.424883,100.378906 C52.4716666,100.378906 54.2051671,99.6583549 55.6253843,98.2172521 C57.0456015,96.7761494 57.7557101,95.0322062 57.7557101,92.9854225 L57.7546742,57.8359823 L93.0313993,57.8350466 C95.0364118,57.8350466 96.7699122,57.1040524 98.2319006,55.6420641 C99.6938889,54.1800758 100.424883,52.4256899 100.424883,50.3789062 C100.424883,48.3321226 99.6938889,46.5881794 98.2319006,45.1470767 C96.7699122,43.7059739 95.0364118,42.9854225 93.0313993,42.9854225 L57.7546742,42.9871268 L57.7557101,7.77238996 C57.7557101,5.76737743 57.0456015,4.03387701 55.6253843,2.57188871 C54.2051671,1.1099004 52.4716666,0.37890625 50.424883,0.37890625 C48.3780994,0.37890625 46.6237134,1.1099004 45.1617251,2.57188871 C43.6997368,4.03387701 42.9687427,5.76737743 42.9687427,7.77238996 L42.9678404,42.9871268 L7.81836672,42.9854225 C5.77158309,42.9854225 4.01719713,43.7059739 2.55520882,45.1470767 C1.09322052,46.5881794 0.362226367,48.3321226 0.362226367,50.3789062 C0.362226367,52.4256899 1.09322052,54.1800758 2.55520882,55.6420641 C4.01719713,57.1040524 5.77158309,57.8350466 7.81836672,57.8350466 L42.9678404,57.8359823 L42.9687427,92.9854225 C42.9687427,95.0322062 43.6997368,96.7761494 45.1617251,98.2172521 C46.6237134,99.6583549 48.3780994,100.378906 50.424883,100.378906 Z" id="􀅼" fill="#FFFFFF" fill-rule="nonzero"></path>
    </g>
</svg>