<svg viewBox="0 0 24 24" fill="none" xmlns="http://www.w3.org/2000/svg"><path fill-rule="evenodd" clip-rule="evenodd" d="M10 4h4v2h-4V4ZM8 6V4a2 2 0 0 1 2-2h4a2 2 0 0 1 2 2v2h6v6.59c-.664.154-1.331.292-2 .415v-.027c-.995.19-1.996.346-3 .465V14.5h-2v-.868a42.486 42.486 0 0 1-6 0v.868H7v-1.057a42.429 42.429 0 0 1-3-.465v.027a44.26 44.26 0 0 1-2-.415V6h6Zm9 5.428V10.5h-2v1.127a40.514 40.514 0 0 1-6 0V10.5H7v.928a40.431 40.431 0 0 1-3-.488V8h16v2.94c-.995.2-1.996.363-3 .488ZM2 14.641c.664.147 1.331.279 2 .396V20h16v-4.963c.669-.117 1.336-.25 2-.396V20a2 2 0 0 1-2 2H4a2 2 0 0 1-2-2v-5.36Z" fill="var(--icon-primary)"/></svg>