<svg viewBox="0 0 24 24" fill="none" xmlns="http://www.w3.org/2000/svg"><path d="M12.423 16.394c.24.62.5 1.064.779 1.33.279.254.602.406.969.456v.57H8.718v-.589c.583-.012 1-.082 1.254-.209.266-.126.399-.348.399-.665 0-.253-.076-.57-.228-.95l-.855-2.394h-4.94l-.836 2.28c-.152.418-.228.754-.228 1.007 0 .33.12.564.36.703.242.127.622.203 1.14.228v.59H.473v-.57c.52-.051.906-.21 1.159-.476.266-.278.532-.772.798-1.482l3.876-10.45 1.919-.74 4.199 11.361Zm-7.81-3.21h4.39L7.996 10.39a82.674 82.674 0 0 1-.836-2.394c-.19-.595-.285-1.026-.285-1.292H6.78c-.013.254-.114.678-.304 1.273-.19.596-.475 1.406-.855 2.432l-1.007 2.774Zm18.834 4.236c-.152.507-.399.887-.74 1.14-.343.254-.748.38-1.217.38-.506 0-.918-.145-1.235-.437-.304-.291-.462-.722-.475-1.292h-.133c-.126.494-.424.912-.893 1.254-.456.342-1.02.513-1.69.513-.811 0-1.457-.209-1.939-.627-.468-.418-.703-1.02-.703-1.805 0-.76.273-1.374.817-1.843.558-.481 1.413-.836 2.565-1.064l1.9-.38v-.55c0-.685-.17-1.21-.513-1.578-.342-.38-.855-.57-1.539-.57-1.203 0-2.014.507-2.432 1.52l-.57-.19a3.581 3.581 0 0 1 1.16-1.976c.607-.52 1.443-.779 2.507-.779 1.039 0 1.85.298 2.432.893.583.583.874 1.463.874 2.641v3.99c0 .634.241.95.722.95.317 0 .558-.145.722-.437l.38.247Zm-5.472.4c.849 0 1.425-.488 1.73-1.464v-2.394l-.97.171c-.734.152-1.292.393-1.672.722-.38.33-.57.786-.57 1.368 0 .494.127.887.38 1.178.266.279.634.418 1.102.418Z" fill="var(--icon-primary)"/></svg>