<svg xmlns="http://www.w3.org/2000/svg" fill="none" viewBox="0 0 25 25"><path fill="var(--bg-overlay-tertiary)" d="M22.772 12.5c0 5.673-4.599 10.272-10.271 10.272-5.673 0-10.272-4.599-10.272-10.272S6.828 2.23 12.5 2.23c5.673 0 10.272 4.598 10.272 10.271Z"/><path fill="var(--border-secondary)" fill-rule="evenodd" d="M12.5 21.972a9.472 9.472 0 1 0 0-18.943 9.472 9.472 0 1 0 0 18.943Zm0 .8c5.673 0 10.272-4.599 10.272-10.272S18.173 2.23 12.501 2.23C6.828 2.229 2.229 6.827 2.229 12.5c0 5.673 4.599 10.272 10.271 10.272Z" clip-rule="evenodd"/><path fill="var(--bg-overlay-tertiary)" fill-rule="evenodd" d="M24.509 12.503h-24v-.801h24v.8Z" clip-rule="evenodd"/><path fill="var(--bg-overlay-tertiary)" fill-rule="evenodd" d="M12.9.503V24.5h-.8V.503h.8Z" clip-rule="evenodd"/><path fill="var(--accent-green-secondary)" d="M12.5 6.405c1.829 1.22 2.439 1.22 4.877 1.22v6.094c0 3.048-4.876 4.877-4.876 4.877s-4.877-1.83-4.877-4.877V7.624c2.438 0 3.048 0 4.877-1.219Z"/><path fill="var(--accent-green-primary)" fill-rule="evenodd" d="M18.108 6.893v6.826c0 1.919-1.512 3.33-2.755 4.184a13.402 13.402 0 0 1-2.576 1.37l-.013.005-.004.001h-.002l-.258-.684s4.877-1.828 4.877-4.876V7.624c-2.438 0-3.048 0-4.877-1.22-1.828 1.22-2.438 1.22-4.876 1.22v6.095c0 3.048 4.876 4.876 4.876 4.876l-.257.685h-.002l-.004-.002-.013-.005a4.458 4.458 0 0 1-.216-.088 13.404 13.404 0 0 1-2.36-1.282c-1.243-.854-2.755-2.265-2.755-4.184V6.893h.731c1.248 0 1.918-.004 2.508-.135.556-.124 1.077-.371 1.963-.962l.405-.27.406.27c.885.59 1.407.838 1.963.962.59.13 1.26.135 2.508.135h.731ZM12.5 18.595l.257.685-.257.096-.257-.096.257-.685Z" clip-rule="evenodd"/><path fill="var(--accent-green-secondary)" d="M12.5 6.405c1.83 1.22 2.439 1.22 4.877 1.22v6.094c0 3.048-4.876 4.877-4.876 4.877V6.405Z"/><path fill="var(--accent-green-primary)" fill-rule="evenodd" d="m14.802 10.261 1.034 1.035-4.067 4.067-2.604-2.604 1.034-1.035 1.57 1.57 3.033-3.033Z" clip-rule="evenodd"/></svg>
